<svg xmlns="http://www.w3.org/2000/svg" viewBox="0 0 221.9 95.54"><defs><style>.cls-1{fill:#25b3b7;}.cls-2{fill:#fff;}</style></defs><title>HWHD_Main Logo_Shape</title><g id="Layer_2" data-name="Layer 2"><g id="Layer_1-2" data-name="Layer 1"><path class="cls-1" d="M215.71,58.89A43.8,43.8,0,0,1,172.5,95.54H23.94a17.46,17.46,0,0,1-17.67-15L.21,37.1a21.08,21.08,0,0,1,19.36-24l181-13.1a19.86,19.86,0,0,1,21.1,22.54Z"/><path class="cls-2" d="M77.24,70.5H68.79V52h7.85A9.3,9.3,0,0,1,86,61.25C86,66.16,82.1,70.5,77.24,70.5Zm-.39-4.2c2.5,0,4.52-2.34,4.52-5a4.91,4.91,0,0,0-4.73-5.07H73.3V66.3Z"/><path class="cls-2" d="M91.44,70.5H86.76V52h4.68Z"/><path class="cls-2" d="M107.83,64.85c0,3.7-2.91,5.91-7.33,5.91A14.85,14.85,0,0,1,92.57,69l1.68-3.51a13.86,13.86,0,0,0,6.41,1.34c1.58,0,2.47-.53,2.47-1.53s-.81-1.39-3.36-2c-3.86-.89-6.94-1.92-6.94-5.75,0-3.39,2.68-5.81,7-5.81a19.12,19.12,0,0,1,7.31,1.53l-1.9,3.65a16.58,16.58,0,0,0-5.54-1.21c-1.44,0-2.2.6-2.2,1.44s.89,1.42,3.49,2C105.18,60,107.83,61.38,107.83,64.85Z"/><path class="cls-2" d="M116.77,66.22a2.36,2.36,0,0,1-.39,0h-2.81V70.5h-4.65V52h8.51c5.59,0,7.51,3.31,7.51,6.91,0,3.1-1.18,5.28-3.54,6.43l4.12,5.18H120Zm-3.2-3.76h2.62c2.79,0,3.87-1.52,3.87-3.23a3.07,3.07,0,0,0-3.42-3.31h-3.07Z"/><path class="cls-2" d="M140.79,66.56V70.5H126.11V52h14.13v3.94h-9.62V59.6h8v3.83h-8v3.13Z"/><path class="cls-2" d="M149.23,52c5.6,0,7.51,3.31,7.51,6.91,0,5.25-3.41,7.35-8.27,7.35h-2.39V70.5h-4.65V52ZM148,62.43c2.78,0,3.86-1.49,3.86-3.2a3.07,3.07,0,0,0-3.42-3.31h-2.36v6.51Z"/><path class="cls-2" d="M168,67.24h-7.54L159,70.5h-4.89l9-18.52h2.23l9,18.52h-4.89Zm-5.88-3.83h4.23l-2.13-4.63Z"/><path class="cls-2" d="M180,70.5h-4.68V52H180Z"/><path class="cls-2" d="M189.84,66.22a2.55,2.55,0,0,1-.4,0h-2.81V70.5H182V52h8.51c5.6,0,7.51,3.31,7.51,6.91,0,3.1-1.18,5.28-3.54,6.43l4.12,5.18H193Zm-3.21-3.76h2.63c2.78,0,3.86-1.52,3.86-3.23a3.07,3.07,0,0,0-3.42-3.31h-3.07Z"/><path class="cls-2" d="M77.52,39.19V49.63H76.28v-4H70.35v4H69.12V39.19h1.23v5.35h5.93V39.19Z"/><path class="cls-2" d="M87.6,48.55v1.08H80V39.19h7.25v1.08h-6V44h5.1V45.1h-5.1v3.45Z"/><path class="cls-2" d="M97.24,48.58v1.05H90.18V39.19h1.27v9.39Z"/><path class="cls-2" d="M103.78,39.19c2.84,0,3.83,1.69,3.83,3.52,0,2.66-1.74,3.72-4.23,3.72h-2.46v3.2H99.64V39.19Zm-.51,6.19c1.89,0,3-.86,3-2.59a2.36,2.36,0,0,0-2.68-2.52h-2.68v5.11Z"/><path class="cls-2" d="M114.71,42.86l-2.2,3.77h-.16l-.57-3.34-1.85,3.34h-.15L109,42.86h.26l.65,3.33,1.84-3.33H112l.55,3.33,2-3.33Z"/><path class="cls-2" d="M115.45,42.86h.26L115,46.63h-.26Zm.31-.8a.18.18,0,0,1-.19-.19.22.22,0,0,1,.22-.22.2.2,0,0,1,.19.19A.22.22,0,0,1,115.76,42.06Z"/><path class="cls-2" d="M117.4,43.09s-.48,2.51-.49,2.65a.53.53,0,0,0,0,.12c0,.42.3.56.68.56a3.73,3.73,0,0,0,.64-.07l0,.23a3,3,0,0,1-.56.08c-.56,0-1-.2-1-.82a1.47,1.47,0,0,1,.05-.34l.46-2.41h-.7l0-.23h.69l.29-1.51h.26l-.29,1.51h1.47l0,.23Z"/><path class="cls-2" d="M122.76,43.85c0,.06,0,.12,0,.18s-.47,2.42-.5,2.6H122c0-.16.47-2.37.49-2.52s0-.13,0-.19c0-.63-.55-.89-1.17-.89a2.53,2.53,0,0,0-1.56.53l-.59,3.07h-.25l1-5.28h.25l-.38,2a2.54,2.54,0,0,1,1.58-.52C122.13,42.79,122.76,43.16,122.76,43.85Z"/><path class="cls-2" d="M133,39.19V49.63h-1.24v-4h-5.93v4h-1.23V39.19h1.23v5.35h5.93V39.19Z"/><path class="cls-2" d="M146.38,44.42a5.52,5.52,0,1,1-5.53-5.31A5.41,5.41,0,0,1,146.38,44.42Zm-1.31,0a4.22,4.22,0,1,0-4.22,4.13A4.18,4.18,0,0,0,145.07,44.42Z"/><path class="cls-2" d="M157.15,45.44a4.39,4.39,0,0,1-8.77,0V39.19h1.24v6c0,2.06,1.08,3.4,3.13,3.4s3.17-1.34,3.17-3.4v-6h1.23Z"/><path class="cls-2" d="M167.39,46.79c0,1.87-1.54,3-3.87,3a7.48,7.48,0,0,1-4.13-1l.47-1a7,7,0,0,0,3.71.85c1.54,0,2.53-.66,2.53-1.78S165,45.35,163.36,45c-2.12-.51-3.87-1.06-3.87-3,0-1.69,1.39-2.89,3.67-2.89a9.48,9.48,0,0,1,3.81.81l-.53,1a8.53,8.53,0,0,0-3.29-.72c-1.5,0-2.38.71-2.38,1.71s1.18,1.52,2.91,1.93C165.79,44.33,167.39,45,167.39,46.79Z"/><path class="cls-2" d="M170.69,49.63H169.4V39.19h1.29Z"/><path class="cls-2" d="M183.05,39.19V49.63h-.67l-7-8.06v8.06h-1.28V39.19h.67l7,8.06V39.19Z"/><path class="cls-2" d="M195.72,44.63V48.2a7.26,7.26,0,0,1-4.52,1.52,5.31,5.31,0,1,1,0-10.61,6,6,0,0,1,4.13,1.5l-.8.87a4.88,4.88,0,0,0-3.33-1.2,4.16,4.16,0,1,0,0,8.32,5.38,5.38,0,0,0,3.24-1V45.68h-3.5v-1Z"/><path class="cls-2" d="M64,45.45l-20.41-17a2.79,2.79,0,0,0-3.57,0l-8.43,7v-1a1.38,1.38,0,0,0-1.38-1.38H28.55a1.38,1.38,0,0,0-1.38,1.38v4.66l-7.6,6.33a1.27,1.27,0,0,0,.48,2.2l2.23.59a1.26,1.26,0,0,1,.94,1.22V67a3.15,3.15,0,0,0,3.15,3.15h1.14v-17A14.4,14.4,0,0,1,41.35,38.73a14.25,14.25,0,1,1-5.23,27.33l-4.28,4.12H57.15A3.15,3.15,0,0,0,60.3,67V49.46a1.27,1.27,0,0,1,.94-1.22l2.23-.59A1.27,1.27,0,0,0,64,45.45Z"/><rect class="cls-2" x="36.54" y="48.23" width="4.34" height="4.34" rx="0.97"/><rect class="cls-2" x="42.76" y="48.23" width="4.34" height="4.34" rx="0.97"/><rect class="cls-2" x="36.54" y="54.1" width="4.34" height="4.34" rx="0.97"/><rect class="cls-2" x="42.76" y="54.1" width="4.34" height="4.34" rx="0.97"/></g></g></svg>